<svg width="100" height="100" viewBox="0 0 100 100" xmlns="http://www.w3.org/2000/svg">
  <!-- Background circle -->
  <circle cx="50" cy="50" r="45" fill="#f4f1eb" stroke="#8b7355" stroke-width="2"/>

  <!-- Table -->
  <ellipse cx="50" cy="65" rx="25" ry="8" fill="#8b4513" stroke="#654321" stroke-width="1"/>
  <ellipse cx="50" cy="63" rx="25" ry="8" fill="#a0522d" stroke="#654321" stroke-width="1"/>

  <!-- Table leg -->
  <rect x="48" y="70" width="4" height="15" fill="#654321"/>

  <!-- Wine glass -->
  <ellipse cx="45" cy="55" rx="4" ry="2" fill="#8b0000" opacity="0.8"/>
  <rect x="47" y="45" width="2" height="10" fill="#f5f5dc" opacity="0.9"/>
  <ellipse cx="48" cy="45" rx="3" ry="4" fill="#8b0000" opacity="0.7"/>
  <path d="M 45 45 Q 48 42 51 45" stroke="#c0c0c0" stroke-width="1" fill="none"/>

  <!-- Chair -->
  <rect x="65" y="55" width="20" height="8" rx="2" fill="#8b4513"/>
  <rect x="65" y="63" width="20" height="8" rx="2" fill="#a0522d"/>
  <rect x="67" y="47" width="16" height="8" rx="2" fill="#8b4513"/>
  <rect x="67" y="55" width="16" height="2" fill="#654321"/>
  <rect x="65" y="71" width="2" height="8" fill="#654321"/>
  <rect x="83" y="71" width="2" height="8" fill="#654321"/>
</svg>